<svg xmlns="http://www.w3.org/2000/svg" viewBox="0 0 64 80" fill="none" stroke-linecap="round" stroke-linejoin="round">
  <!-- Transparent decorative-only cluster. No shadow or background. -->
  <path d="M25 6C27 24 29 29 43 32C29 35 27 41 25 57C22 41 20 35 7 33C20 29 23 24 25 6Z" fill="#f8dbac" stroke="#c99560" stroke-width="1.7"/>
  <path d="M25 18Q27 31 34 32Q27 35 25 45Q23 35 16 33Q23 30 25 18Z" fill="#fff4d7"/>
  <path d="M48 48Q49 59 57 62Q49 64 48 74Q46 65 40 63Q46 59 48 48Z" fill="#f5d6a1" stroke="#ba8c61" stroke-width="1.3"/>
  <path d="M50 13Q51 18 55 20Q51 21 50 27Q49 22 45 20Q49 18 50 13Z" fill="#d2bddb" stroke="#9c7daa" stroke-width="1"/>
  <path d="M12 64L11 66M36 16L37 17" stroke="#b090bf" stroke-width="2.2"/>
</svg>
